<?xml version="1.0" encoding="UTF-8" standalone="no"?>
<!DOCTYPE svg PUBLIC "-//W3C//DTD SVG 1.1//EN"
 "http://www.w3.org/Graphics/SVG/1.1/DTD/svg11.dtd">
<!-- Generated by graphviz version 2.40.1 (20161225.0304)
 -->
<!-- Title: pastafarianism Pages: 1 -->
<svg width="331pt" height="116pt"
 viewBox="0.00 0.00 330.55 116.00" xmlns="http://www.w3.org/2000/svg" xmlns:xlink="http://www.w3.org/1999/xlink">
<g id="graph0" class="graph" transform="scale(1 1) rotate(0) translate(4 112)">
<title>pastafarianism</title>
<polygon fill="#ffffff" stroke="transparent" points="-4,4 -4,-112 326.55,-112 326.55,4 -4,4"/>
<!-- Sequence -->
<g id="node1" class="node">
<title>Sequence</title>
<polygon fill="#ffa500" stroke="#000000" points="190.641,-108 136.641,-108 136.641,-72 190.641,-72 190.641,-108"/>
<text text-anchor="middle" x="163.641" y="-87.8" font-family="Times,serif" font-size="9.00" fill="#000000">Sequence</text>
</g>
<!-- Goto_Block -->
<g id="node2" class="node">
<title>Goto_Block</title>
<ellipse fill="#c0c0c0" stroke="#000000" cx="34.641" cy="-18" rx="34.7826" ry="18"/>
<text text-anchor="middle" x="34.641" y="-15.8" font-family="Times,serif" font-size="9.00" fill="#000000">Goto_Block</text>
</g>
<!-- Sequence&#45;&gt;Goto_Block -->
<g id="edge1" class="edge">
<title>Sequence&#45;&gt;Goto_Block</title>
<path fill="none" stroke="#000000" d="M136.5984,-74.9064C116.4289,-63.6491 88.7813,-48.2178 67.3645,-36.2643"/>
<polygon fill="#000000" stroke="#000000" points="69.0451,-33.1941 58.6073,-31.3765 65.6335,-39.3064 69.0451,-33.1941"/>
</g>
<!-- Grab_Block -->
<g id="node3" class="node">
<title>Grab_Block</title>
<ellipse fill="#c0c0c0" stroke="#000000" cx="121.641" cy="-18" rx="34.7826" ry="18"/>
<text text-anchor="middle" x="121.641" y="-15.8" font-family="Times,serif" font-size="9.00" fill="#000000">Grab_Block</text>
</g>
<!-- Sequence&#45;&gt;Grab_Block -->
<g id="edge2" class="edge">
<title>Sequence&#45;&gt;Grab_Block</title>
<path fill="none" stroke="#000000" d="M153.0426,-71.8314C148.1581,-63.4579 142.2692,-53.3626 136.9172,-44.1878"/>
<polygon fill="#000000" stroke="#000000" points="139.8633,-42.2919 131.8013,-35.4177 133.8169,-45.8191 139.8633,-42.2919"/>
</g>
<!-- Goto_Goal -->
<g id="node4" class="node">
<title>Goto_Goal</title>
<ellipse fill="#c0c0c0" stroke="#000000" cx="206.641" cy="-18" rx="32.1641" ry="18"/>
<text text-anchor="middle" x="206.641" y="-15.8" font-family="Times,serif" font-size="9.00" fill="#000000">Goto_Goal</text>
</g>
<!-- Sequence&#45;&gt;Goto_Goal -->
<g id="edge3" class="edge">
<title>Sequence&#45;&gt;Goto_Goal</title>
<path fill="none" stroke="#000000" d="M174.4917,-71.8314C179.4925,-63.4579 185.5217,-53.3626 191.0011,-44.1878"/>
<polygon fill="#000000" stroke="#000000" points="194.1162,-45.7978 196.2388,-35.4177 188.1064,-42.2085 194.1162,-45.7978"/>
</g>
<!-- Place_Goal -->
<g id="node5" class="node">
<title>Place_Goal</title>
<ellipse fill="#c0c0c0" stroke="#000000" cx="289.641" cy="-18" rx="32.8182" ry="18"/>
<text text-anchor="middle" x="289.641" y="-15.8" font-family="Times,serif" font-size="9.00" fill="#000000">Place_Goal</text>
</g>
<!-- Sequence&#45;&gt;Place_Goal -->
<g id="edge4" class="edge">
<title>Sequence&#45;&gt;Place_Goal</title>
<path fill="none" stroke="#000000" d="M190.6712,-74.5542C210.4498,-63.2521 237.3416,-47.8854 258.1018,-36.0224"/>
<polygon fill="#000000" stroke="#000000" points="259.9265,-39.0109 266.8724,-31.0106 256.4535,-32.9332 259.9265,-39.0109"/>
</g>
</g>
</svg>
