<?xml version="1.0" encoding="UTF-8" standalone="no"?>
<!DOCTYPE svg PUBLIC "-//W3C//DTD SVG 1.1//EN"
 "http://www.w3.org/Graphics/SVG/1.1/DTD/svg11.dtd">
<!-- Generated by graphviz version 2.40.1 (20161225.0304)
 -->
<!-- Title: pastafarianism Pages: 1 -->
<svg width="247pt" height="332pt"
 viewBox="0.00 0.00 247.09 332.00" xmlns="http://www.w3.org/2000/svg" xmlns:xlink="http://www.w3.org/1999/xlink">
<g id="graph0" class="graph" transform="scale(1 1) rotate(0) translate(4 328)">
<title>pastafarianism</title>
<polygon fill="#ffffff" stroke="transparent" points="-4,4 -4,-328 243.0859,-328 243.0859,4 -4,4"/>
<!-- Inverter -->
<g id="node1" class="node">
<title>Inverter</title>
<ellipse fill="#f8f8ff" stroke="#000000" cx="156.1769" cy="-306" rx="27" ry="18"/>
<text text-anchor="middle" x="156.1769" y="-303.8" font-family="Times,serif" font-size="9.00" fill="#000000">Inverter</text>
</g>
<!-- Condition -->
<g id="node2" class="node">
<title>Condition</title>
<ellipse fill="#f8f8ff" stroke="#000000" cx="156.1769" cy="-234" rx="30.0444" ry="18"/>
<text text-anchor="middle" x="156.1769" y="-231.8" font-family="Times,serif" font-size="9.00" fill="#000000">Condition</text>
</g>
<!-- Inverter&#45;&gt;Condition -->
<g id="edge1" class="edge">
<title>Inverter&#45;&gt;Condition</title>
<path fill="none" stroke="#000000" d="M156.1769,-287.8314C156.1769,-280.131 156.1769,-270.9743 156.1769,-262.4166"/>
<polygon fill="#000000" stroke="#000000" points="159.677,-262.4132 156.1769,-252.4133 152.677,-262.4133 159.677,-262.4132"/>
</g>
<!-- ? -->
<g id="node3" class="node">
<title>?</title>
<polygon fill="#00ffff" stroke="#000000" points="183.1769,-154.5442 183.1769,-169.4558 167.3607,-180 144.9931,-180 129.1769,-169.4558 129.1769,-154.5442 144.9931,-144 167.3607,-144 183.1769,-154.5442"/>
<text text-anchor="middle" x="156.1769" y="-159.8" font-family="Times,serif" font-size="9.00" fill="#000000">?</text>
</g>
<!-- Condition&#45;&gt;? -->
<g id="edge2" class="edge">
<title>Condition&#45;&gt;?</title>
<path fill="none" stroke="#000000" d="M156.1769,-215.8314C156.1769,-208.131 156.1769,-198.9743 156.1769,-190.4166"/>
<polygon fill="#000000" stroke="#000000" points="159.677,-190.4132 156.1769,-180.4133 152.677,-190.4133 159.677,-190.4132"/>
</g>
<!-- → -->
<g id="node4" class="node">
<title>→</title>
<polygon fill="#ffa500" stroke="#000000" points="145.1769,-108 91.1769,-108 91.1769,-72 145.1769,-72 145.1769,-108"/>
<text text-anchor="middle" x="118.1769" y="-87.8" font-family="Times,serif" font-size="9.00" fill="#000000">→</text>
</g>
<!-- ?&#45;&gt;→ -->
<g id="edge3" class="edge">
<title>?&#45;&gt;→</title>
<path fill="none" stroke="#000000" d="M146.5879,-143.8314C142.3452,-135.7925 137.2648,-126.1666 132.5809,-117.2918"/>
<polygon fill="#000000" stroke="#000000" points="135.658,-115.6235 127.895,-108.4133 129.4673,-118.8908 135.658,-115.6235"/>
</g>
<!-- Condition* -->
<g id="node7" class="node">
<title>Condition*</title>
<ellipse fill="#f8f8ff" stroke="#000000" cx="200.1769" cy="-90" rx="32.1641" ry="18"/>
<text text-anchor="middle" x="200.1769" y="-87.8" font-family="Times,serif" font-size="9.00" fill="#000000">Condition*</text>
</g>
<!-- ?&#45;&gt;Condition* -->
<g id="edge6" class="edge">
<title>?&#45;&gt;Condition*</title>
<path fill="none" stroke="#000000" d="M167.28,-143.8314C172.3971,-135.4579 178.5665,-125.3626 184.1733,-116.1878"/>
<polygon fill="#000000" stroke="#000000" points="187.3047,-117.7756 189.5328,-107.4177 181.3317,-114.1255 187.3047,-117.7756"/>
</g>
<!-- Not Alone -->
<g id="node5" class="node">
<title>Not Alone</title>
<ellipse fill="#c0c0c0" stroke="#000000" cx="31.1769" cy="-18" rx="31.3548" ry="18"/>
<text text-anchor="middle" x="31.1769" y="-15.8" font-family="Times,serif" font-size="9.00" fill="#000000">Not Alone</text>
</g>
<!-- →&#45;&gt;Not Alone -->
<g id="edge4" class="edge">
<title>→&#45;&gt;Not Alone</title>
<path fill="none" stroke="#000000" d="M96.2231,-71.8314C84.2482,-61.9211 69.3589,-49.5988 56.8485,-39.2454"/>
<polygon fill="#000000" stroke="#000000" points="58.9609,-36.4506 49.0255,-32.7712 54.4979,-41.8433 58.9609,-36.4506"/>
</g>
<!-- Goto Pacman -->
<g id="node6" class="node">
<title>Goto Pacman</title>
<ellipse fill="#c0c0c0" stroke="#000000" cx="118.1769" cy="-18" rx="37.5556" ry="18"/>
<text text-anchor="middle" x="118.1769" y="-15.8" font-family="Times,serif" font-size="9.00" fill="#000000">Goto Pacman</text>
</g>
<!-- →&#45;&gt;Goto Pacman -->
<g id="edge5" class="edge">
<title>→&#45;&gt;Goto Pacman</title>
<path fill="none" stroke="#000000" d="M118.1769,-71.8314C118.1769,-64.131 118.1769,-54.9743 118.1769,-46.4166"/>
<polygon fill="#000000" stroke="#000000" points="121.677,-46.4132 118.1769,-36.4133 114.677,-46.4133 121.677,-46.4132"/>
</g>
<!-- Stop Ghost -->
<g id="node8" class="node">
<title>Stop Ghost</title>
<ellipse fill="#c0c0c0" stroke="#000000" cx="206.1769" cy="-18" rx="32.8182" ry="18"/>
<text text-anchor="middle" x="206.1769" y="-15.8" font-family="Times,serif" font-size="9.00" fill="#000000">Stop Ghost</text>
</g>
<!-- Condition*&#45;&gt;Stop Ghost -->
<g id="edge7" class="edge">
<title>Condition*&#45;&gt;Stop Ghost</title>
<path fill="none" stroke="#000000" d="M201.691,-71.8314C202.3327,-64.131 203.0957,-54.9743 203.8089,-46.4166"/>
<polygon fill="#000000" stroke="#000000" points="207.2998,-46.6694 204.6425,-36.4133 200.324,-46.088 207.2998,-46.6694"/>
</g>
</g>
</svg>
